<mxfile host="65bd71144e">
    <diagram id="LfRkVFwqQu-RVJrRlS30" name="Page-1">
        <mxGraphModel dx="1446" dy="1962" grid="1" gridSize="10" guides="1" tooltips="1" connect="1" arrows="1" fold="1" page="0" pageScale="1" pageWidth="850" pageHeight="1100" background="none" math="0" shadow="0">
            <root>
                <mxCell id="0"/>
                <mxCell id="1" parent="0"/>
                <mxCell id="4" value="" style="rounded=1;whiteSpace=wrap;html=1;strokeColor=#A50040;strokeWidth=5;" parent="1" vertex="1">
                    <mxGeometry x="800" y="520" width="240" height="200" as="geometry"/>
                </mxCell>
                <mxCell id="5" value="&lt;h1&gt;DB Server(LXC)&lt;/h1&gt;&lt;p&gt;- 2 vCPU @ ~3 GHz&lt;br&gt;- 1 GiB RAM&lt;br&gt;- 8 GiB SSD&lt;br&gt;- Private LAN, 500 Mbps&lt;br&gt;- Postgres, or MySQL, or MariDB,&lt;br&gt;&amp;nbsp; or Redis&lt;/p&gt;" style="text;html=1;strokeColor=none;fillColor=none;spacing=5;spacingTop=-20;whiteSpace=wrap;overflow=hidden;rounded=0;" parent="1" vertex="1">
                    <mxGeometry x="820" y="540" width="190" height="160" as="geometry"/>
                </mxCell>
                <mxCell id="6" value="" style="rounded=1;whiteSpace=wrap;html=1;strokeColor=#A50040;strokeWidth=5;" parent="1" vertex="1">
                    <mxGeometry x="800" y="840" width="240" height="200" as="geometry"/>
                </mxCell>
                <mxCell id="7" value="&lt;h1&gt;Mgt. St. (KVM)&lt;/h1&gt;&lt;p&gt;- 2 vCPU @ ~3 GHz&lt;br&gt;- 2 GiB RAM&lt;br&gt;- 20 GiB SSD&lt;br&gt;- Private LAN, 500 Mbps&lt;br&gt;- Debian12, Gnome, Wayland, &lt;br&gt;- Root Access&lt;/p&gt;" style="text;html=1;strokeColor=none;fillColor=none;spacing=5;spacingTop=-20;whiteSpace=wrap;overflow=hidden;rounded=0;" parent="1" vertex="1">
                    <mxGeometry x="820" y="860" width="190" height="160" as="geometry"/>
                </mxCell>
                <mxCell id="8" value="" style="rounded=1;whiteSpace=wrap;html=1;strokeColor=#A50040;strokeWidth=5;" parent="1" vertex="1">
                    <mxGeometry x="440" y="840" width="240" height="200" as="geometry"/>
                </mxCell>
                <mxCell id="9" value="&lt;h1&gt;Web Server 2&lt;/h1&gt;&lt;h1&gt;&lt;p style=&quot;font-size: 12px; font-weight: 400;&quot;&gt;- 2 vCPU @ ~3 GHz&lt;br&gt;- 1 GiB RAM&lt;br&gt;- 8 GiB SSD&lt;br&gt;- Private LAN, 500 Mbps&lt;br&gt;- Apache2, or NginX&lt;/p&gt;&lt;/h1&gt;" style="text;html=1;strokeColor=none;fillColor=none;spacing=5;spacingTop=-20;whiteSpace=wrap;overflow=hidden;rounded=0;" parent="1" vertex="1">
                    <mxGeometry x="460" y="860" width="190" height="160" as="geometry"/>
                </mxCell>
                <mxCell id="10" value="" style="rounded=1;whiteSpace=wrap;html=1;strokeColor=#A50040;strokeWidth=5;" parent="1" vertex="1">
                    <mxGeometry x="1160" y="840" width="240" height="200" as="geometry"/>
                </mxCell>
                <mxCell id="11" value="&lt;h1&gt;Storage (LXC)&lt;/h1&gt;&lt;p&gt;- 1 TiB quota&lt;br&gt;- $.01/GiB/mo (only occupied&lt;br&gt;&amp;nbsp; storage is billed)&lt;br&gt;- Mountable on each LXC&lt;br&gt;&amp;nbsp; container and KVM machine&lt;br&gt;&amp;nbsp; as SSHFS mount&lt;/p&gt;" style="text;html=1;strokeColor=none;fillColor=none;spacing=5;spacingTop=-20;whiteSpace=wrap;overflow=hidden;rounded=0;" parent="1" vertex="1">
                    <mxGeometry x="1180" y="860" width="190" height="160" as="geometry"/>
                </mxCell>
                <mxCell id="12" value="" style="rounded=1;whiteSpace=wrap;html=1;strokeColor=#A50040;strokeWidth=5;" parent="1" vertex="1">
                    <mxGeometry x="440" y="520" width="240" height="200" as="geometry"/>
                </mxCell>
                <mxCell id="13" value="&lt;h1&gt;Web Server 1&lt;/h1&gt;&lt;p&gt;- 2 vCPU @ ~3 GHz&lt;br&gt;- 1 GiB RAM&lt;br&gt;- 8 GiB SSD&lt;br&gt;- Private LAN, 500 Mbps&lt;br&gt;- Apache2, or NginX&lt;/p&gt;" style="text;html=1;strokeColor=none;fillColor=none;spacing=5;spacingTop=-20;whiteSpace=wrap;overflow=hidden;rounded=0;" parent="1" vertex="1">
                    <mxGeometry x="460" y="540" width="190" height="160" as="geometry"/>
                </mxCell>
                <mxCell id="14" value="" style="rounded=1;whiteSpace=wrap;html=1;strokeColor=#A50040;strokeWidth=5;" parent="1" vertex="1">
                    <mxGeometry x="1160" y="520" width="240" height="200" as="geometry"/>
                </mxCell>
                <mxCell id="15" value="&lt;h1&gt;Load Bal. (LXC)&lt;/h1&gt;&lt;p&gt;- 1 vCPU @ ~3 GHz&lt;br&gt;- 512 MiB RAM&lt;br&gt;- 8 GiB magnetic HDD&lt;br&gt;- Private LAN,&amp;nbsp;500 Mbps&lt;br&gt;- HAProxy&lt;/p&gt;" style="text;html=1;strokeColor=none;fillColor=none;spacing=5;spacingTop=-20;whiteSpace=wrap;overflow=hidden;rounded=0;" parent="1" vertex="1">
                    <mxGeometry x="1180" y="540" width="190" height="160" as="geometry"/>
                </mxCell>
                <mxCell id="16" value="" style="rounded=1;whiteSpace=wrap;html=1;strokeColor=#005700;strokeWidth=5;" parent="1" vertex="1">
                    <mxGeometry x="880" y="160" width="440" height="200" as="geometry"/>
                </mxCell>
                <mxCell id="17" value="&lt;h1&gt;Router (KVM)&lt;/h1&gt;&lt;p&gt;- 2 vCPU @ ~3 GHz&lt;br&gt;- 512 MiB RAM&lt;br&gt;- 4 GiB magnetic HDD&lt;br&gt;- Public IPv4 on WAN, 250 Mbps&lt;br&gt;- Private LAN (192.168.0.0/29)&lt;br&gt;&amp;nbsp; 500 Mbps&lt;br&gt;- pfSense CE, OpenVPN, IPSec&lt;/p&gt;" style="text;html=1;strokeColor=none;fillColor=none;spacing=5;spacingTop=-20;whiteSpace=wrap;overflow=hidden;rounded=0;" parent="1" vertex="1">
                    <mxGeometry x="900" y="180" width="190" height="160" as="geometry"/>
                </mxCell>
                <mxCell id="19" value="&lt;h1&gt;192.168.0.0/28&lt;/h1&gt;&lt;p&gt;Private network for KVM VMs and LXC CTs, spanning a 3-node cluster, interconnecting VMs, CTs and the router&lt;/p&gt;" style="text;html=1;spacing=25;spacingTop=-20;whiteSpace=wrap;overflow=hidden;rounded=1;glass=0;shadow=0;strokeWidth=5;perimeterSpacing=0;labelPadding=0;noLabel=0;comic=0;recursiveResize=0;fillColor=none;strokeColor=#A50040;rotation=0;" parent="1" vertex="1">
                    <mxGeometry x="440" y="360" width="360" height="120" as="geometry"/>
                </mxCell>
                <mxCell id="20" value="&lt;font size=&quot;1&quot; style=&quot;&quot;&gt;&lt;b style=&quot;font-size: 24px;&quot;&gt;The Internet&lt;/b&gt;&lt;/font&gt;" style="ellipse;shape=cloud;whiteSpace=wrap;html=1;fillColor=none;fontSize=26;strokeWidth=5;strokeColor=#005700;" parent="1" vertex="1">
                    <mxGeometry x="800" y="-520" width="600" height="320" as="geometry"/>
                </mxCell>
                <mxCell id="21" value="" style="endArrow=none;dashed=1;html=1;exitX=0.5;exitY=0;exitDx=0;exitDy=0;fillColor=#008a00;strokeColor=#005700;strokeWidth=5;dashPattern=1 1;" parent="1" source="16" target="20" edge="1">
                    <mxGeometry width="50" height="50" relative="1" as="geometry">
                        <mxPoint x="1080" y="50" as="sourcePoint"/>
                        <mxPoint x="1100" y="-40" as="targetPoint"/>
                    </mxGeometry>
                </mxCell>
                <mxCell id="24" value="" style="endArrow=none;dashed=1;html=1;fillColor=#d80073;strokeColor=#A50040;strokeWidth=5;dashPattern=1 1;entryX=0.5;entryY=1;entryDx=0;entryDy=0;" parent="1" edge="1" target="16">
                    <mxGeometry width="50" height="50" relative="1" as="geometry">
                        <mxPoint x="1100" y="780" as="sourcePoint"/>
                        <mxPoint x="1100" y="460" as="targetPoint"/>
                    </mxGeometry>
                </mxCell>
                <mxCell id="25" value="" style="endArrow=none;dashed=1;html=1;fillColor=#d80073;strokeColor=#A50040;strokeWidth=5;dashPattern=1 1;" parent="1" edge="1">
                    <mxGeometry width="50" height="50" relative="1" as="geometry">
                        <mxPoint x="560" y="780" as="sourcePoint"/>
                        <mxPoint x="1100" y="780" as="targetPoint"/>
                    </mxGeometry>
                </mxCell>
                <mxCell id="29" value="" style="endArrow=none;dashed=1;html=1;entryX=0.5;entryY=0;entryDx=0;entryDy=0;fillColor=#d80073;strokeColor=#A50040;exitX=0.5;exitY=1;exitDx=0;exitDy=0;strokeWidth=5;dashPattern=1 1;" parent="1" source="4" target="6" edge="1">
                    <mxGeometry width="50" height="50" relative="1" as="geometry">
                        <mxPoint x="920" y="760" as="sourcePoint"/>
                        <mxPoint x="1010" y="600" as="targetPoint"/>
                    </mxGeometry>
                </mxCell>
                <mxCell id="51" value="" style="endArrow=none;html=1;strokeWidth=2;" parent="1" edge="1">
                    <mxGeometry width="50" height="50" relative="1" as="geometry">
                        <mxPoint x="330" y="-560" as="sourcePoint"/>
                        <mxPoint x="1370" y="-560" as="targetPoint"/>
                    </mxGeometry>
                </mxCell>
                <mxCell id="52" value="" style="endArrow=none;html=1;strokeWidth=2;" parent="1" edge="1">
                    <mxGeometry width="50" height="50" relative="1" as="geometry">
                        <mxPoint x="400" y="1080" as="sourcePoint"/>
                        <mxPoint x="400" y="-240" as="targetPoint"/>
                    </mxGeometry>
                </mxCell>
                <mxCell id="53" value="" style="endArrow=none;html=1;strokeWidth=2;" parent="1" edge="1">
                    <mxGeometry width="50" height="50" relative="1" as="geometry">
                        <mxPoint x="1800" y="1080" as="sourcePoint"/>
                        <mxPoint x="1800" y="-230" as="targetPoint"/>
                    </mxGeometry>
                </mxCell>
                <mxCell id="54" value="" style="endArrow=none;html=1;strokeWidth=2;" parent="1" edge="1">
                    <mxGeometry width="50" height="50" relative="1" as="geometry">
                        <mxPoint x="400" y="1080" as="sourcePoint"/>
                        <mxPoint x="1440" y="1080" as="targetPoint"/>
                    </mxGeometry>
                </mxCell>
                <mxCell id="57" value="1.2.3.4/32" style="text;html=1;align=center;verticalAlign=middle;whiteSpace=wrap;rounded=0;strokeWidth=5;" vertex="1" parent="1">
                    <mxGeometry x="1440" y="170" width="50" height="30" as="geometry"/>
                </mxCell>
                <mxCell id="64" value="" style="endArrow=none;dashed=1;html=1;fillColor=#d80073;strokeColor=#A50040;strokeWidth=5;dashPattern=1 1;" edge="1" parent="1">
                    <mxGeometry width="50" height="50" relative="1" as="geometry">
                        <mxPoint x="1100" y="780" as="sourcePoint"/>
                        <mxPoint x="1280" y="780" as="targetPoint"/>
                    </mxGeometry>
                </mxCell>
                <mxCell id="65" value="" style="endArrow=none;dashed=1;html=1;entryX=0.5;entryY=0;entryDx=0;entryDy=0;fillColor=#d80073;strokeColor=#A50040;exitX=0.5;exitY=1;exitDx=0;exitDy=0;strokeWidth=5;dashPattern=1 1;" edge="1" parent="1">
                    <mxGeometry width="50" height="50" relative="1" as="geometry">
                        <mxPoint x="1279.41" y="720" as="sourcePoint"/>
                        <mxPoint x="1279.41" y="840" as="targetPoint"/>
                    </mxGeometry>
                </mxCell>
                <mxCell id="69" value="" style="endArrow=none;dashed=1;html=1;entryX=0.5;entryY=0;entryDx=0;entryDy=0;fillColor=#d80073;strokeColor=#A50040;exitX=0.5;exitY=1;exitDx=0;exitDy=0;strokeWidth=5;dashPattern=1 1;" edge="1" parent="1">
                    <mxGeometry width="50" height="50" relative="1" as="geometry">
                        <mxPoint x="559.4100000000001" y="720" as="sourcePoint"/>
                        <mxPoint x="559.4100000000001" y="840" as="targetPoint"/>
                    </mxGeometry>
                </mxCell>
                <mxCell id="70" value="" style="rounded=1;whiteSpace=wrap;html=1;strokeColor=#A50040;strokeWidth=5;" vertex="1" parent="1">
                    <mxGeometry x="1520" y="520" width="240" height="200" as="geometry"/>
                </mxCell>
                <mxCell id="71" value="&lt;h1&gt;LDAP srv (LXC)&lt;/h1&gt;&lt;p&gt;- 1 vCPU @ ~3 GHz&lt;br&gt;- 512 MiB RAM&lt;br&gt;- 8 GiB magnetic HDD&lt;br&gt;- Private LAN,&amp;nbsp;500 Mbps&lt;br&gt;- OpenLDAP&lt;/p&gt;" style="text;html=1;strokeColor=none;fillColor=none;spacing=5;spacingTop=-20;whiteSpace=wrap;overflow=hidden;rounded=0;" vertex="1" parent="1">
                    <mxGeometry x="1540" y="540" width="190" height="160" as="geometry"/>
                </mxCell>
                <mxCell id="73" value="" style="rounded=1;whiteSpace=wrap;html=1;strokeColor=#A50040;strokeWidth=5;" vertex="1" parent="1">
                    <mxGeometry x="1520" y="840" width="240" height="200" as="geometry"/>
                </mxCell>
                <mxCell id="74" value="&lt;h1&gt;Load Bal. (LXC)&lt;/h1&gt;&lt;p&gt;- 1 vCPU @ ~3 GHz&lt;br&gt;- 512 MiB RAM&lt;br&gt;- 8 GiB magnetic HDD&lt;br&gt;- Private LAN,&amp;nbsp;500 Mbps&lt;br&gt;- HAProxy&lt;/p&gt;" style="text;html=1;strokeColor=none;fillColor=none;spacing=5;spacingTop=-20;whiteSpace=wrap;overflow=hidden;rounded=0;" vertex="1" parent="1">
                    <mxGeometry x="1540" y="860" width="190" height="160" as="geometry"/>
                </mxCell>
                <mxCell id="79" value="&lt;h1&gt;192.168.0.16/28&lt;/h1&gt;&lt;p&gt;VPN1 subnet for up to 15 connected VPN clients, GW pushed to clients and external DNS is blocked,&amp;nbsp;forcing all traffic thru the tunnel&lt;/p&gt;" style="text;html=1;spacing=25;spacingTop=-20;whiteSpace=wrap;overflow=hidden;rounded=1;glass=0;shadow=0;strokeWidth=5;perimeterSpacing=0;labelPadding=0;noLabel=0;comic=0;recursiveResize=0;fillColor=none;strokeColor=#0066CC;rotation=0;" vertex="1" parent="1">
                    <mxGeometry x="440" y="-200" width="360" height="120" as="geometry"/>
                </mxCell>
                <mxCell id="81" value="&lt;h1&gt;192.168.0.32/28&lt;/h1&gt;&lt;p&gt;VPN2 subnet connecting up to 15 VPN2 clients to private network, no GW nor DNS pushing/blocking&lt;/p&gt;" style="text;html=1;spacing=25;spacingTop=-20;whiteSpace=wrap;overflow=hidden;rounded=1;glass=0;shadow=0;strokeWidth=5;perimeterSpacing=0;labelPadding=0;noLabel=0;comic=0;recursiveResize=0;fillColor=none;strokeColor=#66FFFF;rotation=0;" vertex="1" parent="1">
                    <mxGeometry x="440" y="-40" width="360" height="120" as="geometry"/>
                </mxCell>
                <mxCell id="82" value="" style="endArrow=none;dashed=1;html=1;fillColor=#d80073;strokeColor=#A50040;strokeWidth=5;dashPattern=1 1;entryX=1;entryY=0.5;entryDx=0;entryDy=0;" edge="1" parent="1" target="19">
                    <mxGeometry width="50" height="50" relative="1" as="geometry">
                        <mxPoint x="1100" y="420" as="sourcePoint"/>
                        <mxPoint x="1110" y="370" as="targetPoint"/>
                    </mxGeometry>
                </mxCell>
                <mxCell id="83" value="" style="endArrow=none;dashed=1;html=1;fillColor=#d80073;strokeColor=#66FFFF;strokeWidth=5;dashPattern=1 1;entryX=1;entryY=0.5;entryDx=0;entryDy=0;" edge="1" parent="1" target="81">
                    <mxGeometry width="50" height="50" relative="1" as="geometry">
                        <mxPoint x="980" y="20" as="sourcePoint"/>
                        <mxPoint x="760" y="-80" as="targetPoint"/>
                    </mxGeometry>
                </mxCell>
                <mxCell id="88" value="" style="endArrow=none;dashed=1;html=1;fillColor=#d80073;strokeColor=#66FFFF;strokeWidth=5;dashPattern=1 1;exitX=0.221;exitY=-0.005;exitDx=0;exitDy=0;exitPerimeter=0;" edge="1" parent="1" source="16">
                    <mxGeometry width="50" height="50" relative="1" as="geometry">
                        <mxPoint x="1010" y="30" as="sourcePoint"/>
                        <mxPoint x="977" y="20" as="targetPoint"/>
                    </mxGeometry>
                </mxCell>
                <mxCell id="89" value="" style="endArrow=none;dashed=1;html=1;fillColor=#d80073;strokeColor=#0066CC;strokeWidth=5;dashPattern=1 1;entryX=1;entryY=0.5;entryDx=0;entryDy=0;" edge="1" parent="1">
                    <mxGeometry width="50" height="50" relative="1" as="geometry">
                        <mxPoint x="1040" y="-140" as="sourcePoint"/>
                        <mxPoint x="800" y="-140.59" as="targetPoint"/>
                    </mxGeometry>
                </mxCell>
                <mxCell id="90" value="" style="endArrow=none;dashed=1;html=1;fillColor=#d80073;strokeColor=#0066CC;strokeWidth=5;dashPattern=1 1;" edge="1" parent="1">
                    <mxGeometry width="50" height="50" relative="1" as="geometry">
                        <mxPoint x="1038" y="160" as="sourcePoint"/>
                        <mxPoint x="1038" y="-140" as="targetPoint"/>
                    </mxGeometry>
                </mxCell>
            </root>
        </mxGraphModel>
    </diagram>
</mxfile>